<svg xmlns="http://www.w3.org/2000/svg" viewBox="0 0 640 300" font-family="system-ui" font-size="11">
<rect width="640" height="300" fill="#fff"/>
<text x="48" y="20" font-size="13" font-weight="600" fill="#101828">Blend weight on our projection, by week band</text>
<line x1="48" y1="252" x2="592" y2="252" stroke="#e4e7ec"/>
<rect x="61.6" y="196.4" width="34.3" height="55.6" rx="3" fill="#013369"/>
<text x="78.7" y="192.4" text-anchor="middle" fill="#344054">0.30</text>
<rect x="97.9" y="196.4" width="34.3" height="55.6" rx="3" fill="#9aa4b2"/>
<text x="115.0" y="192.4" text-anchor="middle" fill="#344054">0.30</text>
<rect x="134.1" y="214.9" width="34.3" height="37.1" rx="3" fill="#0f9d58"/>
<text x="151.3" y="210.9" text-anchor="middle" fill="#344054">0.20</text>
<text x="116.0" y="268" text-anchor="middle" fill="#344054">QB</text>
<rect x="197.6" y="177.8" width="34.3" height="74.2" rx="3" fill="#013369"/>
<text x="214.7" y="173.8" text-anchor="middle" fill="#344054">0.40</text>
<rect x="233.9" y="177.8" width="34.3" height="74.2" rx="3" fill="#9aa4b2"/>
<text x="251.0" y="173.8" text-anchor="middle" fill="#344054">0.40</text>
<rect x="270.1" y="159.3" width="34.3" height="92.7" rx="3" fill="#0f9d58"/>
<text x="287.3" y="155.3" text-anchor="middle" fill="#344054">0.50</text>
<text x="252.0" y="268" text-anchor="middle" fill="#344054">RB</text>
<rect x="333.6" y="187.1" width="34.3" height="64.9" rx="3" fill="#013369"/>
<text x="350.7" y="183.1" text-anchor="middle" fill="#344054">0.35</text>
<rect x="369.9" y="187.1" width="34.3" height="64.9" rx="3" fill="#9aa4b2"/>
<text x="387.0" y="183.1" text-anchor="middle" fill="#344054">0.35</text>
<rect x="406.1" y="150.0" width="34.3" height="102.0" rx="3" fill="#0f9d58"/>
<text x="423.3" y="146.0" text-anchor="middle" fill="#344054">0.55</text>
<text x="388.0" y="268" text-anchor="middle" fill="#344054">WR</text>
<rect x="469.6" y="224.2" width="34.3" height="27.8" rx="3" fill="#013369"/>
<text x="486.7" y="220.2" text-anchor="middle" fill="#344054">0.15</text>
<rect x="505.9" y="187.1" width="34.3" height="64.9" rx="3" fill="#9aa4b2"/>
<text x="523.0" y="183.1" text-anchor="middle" fill="#344054">0.35</text>
<rect x="542.1" y="150.0" width="34.3" height="102.0" rx="3" fill="#0f9d58"/>
<text x="559.3" y="146.0" text-anchor="middle" fill="#344054">0.55</text>
<text x="524.0" y="268" text-anchor="middle" fill="#344054">TE</text>
<rect x="48" y="282" width="10" height="10" rx="2" fill="#013369"/><text x="62" y="291" fill="#344054">3-6</text>
<rect x="168" y="282" width="10" height="10" rx="2" fill="#9aa4b2"/><text x="182" y="291" fill="#344054">7-10</text>
<rect x="288" y="282" width="10" height="10" rx="2" fill="#0f9d58"/><text x="302" y="291" fill="#344054">11-14</text>
</svg>