<svg xmlns="http://www.w3.org/2000/svg" viewBox="0 0 640 300" font-family="system-ui" font-size="11">
<rect width="640" height="300" fill="#fff"/>
<text x="48" y="20" font-size="13" font-weight="600" fill="#101828">Rest-of-season MAE, pts/g (lower is better)</text>
<line x1="48" y1="252" x2="592" y2="252" stroke="#e4e7ec"/>
<rect x="61.6" y="74.6" width="34.3" height="177.4" rx="3" fill="#013369"/>
<text x="78.7" y="70.6" text-anchor="middle" fill="#344054">3.54</text>
<rect x="97.9" y="83.5" width="34.3" height="168.5" rx="3" fill="#9aa4b2"/>
<text x="115.0" y="79.5" text-anchor="middle" fill="#344054">3.36</text>
<rect x="134.1" y="84.1" width="34.3" height="167.9" rx="3" fill="#0f9d58"/>
<text x="151.3" y="80.1" text-anchor="middle" fill="#344054">3.35</text>
<text x="116.0" y="268" text-anchor="middle" fill="#344054">QB</text>
<rect x="197.6" y="96.7" width="34.3" height="155.3" rx="3" fill="#013369"/>
<text x="214.7" y="92.7" text-anchor="middle" fill="#344054">3.10</text>
<rect x="233.9" y="100.6" width="34.3" height="151.4" rx="3" fill="#9aa4b2"/>
<text x="251.0" y="96.6" text-anchor="middle" fill="#344054">3.02</text>
<rect x="270.1" y="103.9" width="34.3" height="148.1" rx="3" fill="#0f9d58"/>
<text x="287.3" y="99.9" text-anchor="middle" fill="#344054">2.95</text>
<text x="252.0" y="268" text-anchor="middle" fill="#344054">RB</text>
<rect x="333.6" y="113.6" width="34.3" height="138.4" rx="3" fill="#013369"/>
<text x="350.7" y="109.6" text-anchor="middle" fill="#344054">2.76</text>
<rect x="369.9" y="116.8" width="34.3" height="135.2" rx="3" fill="#9aa4b2"/>
<text x="387.0" y="112.8" text-anchor="middle" fill="#344054">2.70</text>
<rect x="406.1" y="119.4" width="34.3" height="132.6" rx="3" fill="#0f9d58"/>
<text x="423.3" y="115.4" text-anchor="middle" fill="#344054">2.64</text>
<text x="388.0" y="268" text-anchor="middle" fill="#344054">WR</text>
<rect x="469.6" y="139.2" width="34.3" height="112.8" rx="3" fill="#013369"/>
<text x="486.7" y="135.2" text-anchor="middle" fill="#344054">2.25</text>
<rect x="505.9" y="143.7" width="34.3" height="108.3" rx="3" fill="#9aa4b2"/>
<text x="523.0" y="139.7" text-anchor="middle" fill="#344054">2.16</text>
<rect x="542.1" y="144.6" width="34.3" height="107.4" rx="3" fill="#0f9d58"/>
<text x="559.3" y="140.6" text-anchor="middle" fill="#344054">2.14</text>
<text x="524.0" y="268" text-anchor="middle" fill="#344054">TE</text>
<rect x="48" y="282" width="10" height="10" rx="2" fill="#013369"/><text x="62" y="291" fill="#344054">ours</text>
<rect x="168" y="282" width="10" height="10" rx="2" fill="#9aa4b2"/><text x="182" y="291" fill="#344054">ECR</text>
<rect x="288" y="282" width="10" height="10" rx="2" fill="#0f9d58"/><text x="302" y="291" fill="#344054">blend (CV)</text>
</svg>